<svg xmlns="http://www.w3.org/2000/svg" viewBox="0 0 1064.87 209.03"><defs><style>.cls-1{fill:#62e497;}.cls-2{fill:#312a52;}.cls-3{fill:none;}</style></defs><g id="Ebene_1" data-name="Ebene 1"><circle class="cls-1" cx="86.12" cy="87.84" r="70.87"/><path class="cls-2" d="M265.84,124.29a22.93,22.93,0,0,1,4.62,14.1q0,11.45-7.68,18.14t-21.41,6.69H200.54V72H240q13.37,0,20.92,6.37t7.55,17.29q0,8.07-4.06,13.39a20.83,20.83,0,0,1-10.8,7.41A20.3,20.3,0,0,1,265.84,124.29Zm-43.95-15.41h14c3.5,0,6.18-.8,8.06-2.4s2.81-4,2.81-7.09-.94-5.5-2.81-7.15-4.56-2.47-8.06-2.47h-14Zm24,33.87q2.94-2.53,2.94-7.35a9.59,9.59,0,0,0-3.06-7.54q-3.06-2.73-8.43-2.73H221.89v20.15h15.73Q243,145.28,245.92,142.75Z" transform="translate(-10.8 -31.54)"/><path class="cls-2" d="M356.11,90.68l-43.7,107h-23l16-36.92L277.07,90.68h23.85L317,136.05l16-45.37Z" transform="translate(-10.8 -31.54)"/><path class="cls-2" d="M404.8,144.37v18.85H393.94q-11.61,0-18.11-5.91T369.34,138V109.14h-8.49V90.68h8.49V73h21.35V90.68h14v18.46h-14v29.12q0,3.26,1.5,4.68c1,1,2.66,1.43,5,1.43Z" transform="translate(-10.8 -31.54)"/><path class="cls-2" d="M484.08,132.28H435.76q.5,6.76,4.19,10.34a12.49,12.49,0,0,0,9.05,3.57q8,0,11.11-7h22.72a33,33,0,0,1-6.3,12.87,31.6,31.6,0,0,1-11.43,9,35.41,35.41,0,0,1-15.35,3.25,36.09,36.09,0,0,1-18.23-4.55,31.71,31.71,0,0,1-12.49-13A41.42,41.42,0,0,1,414.54,127,41.91,41.91,0,0,1,419,107.19a31.35,31.35,0,0,1,12.42-13,36.5,36.5,0,0,1,18.36-4.55,36.1,36.1,0,0,1,18,4.42A31.07,31.07,0,0,1,480,106.67a39.49,39.49,0,0,1,4.43,19.11A58.91,58.91,0,0,1,484.08,132.28Zm-21.47-12.35a11.66,11.66,0,0,0-3.75-9.1,13.47,13.47,0,0,0-9.36-3.38,13.25,13.25,0,0,0-9.06,3.25,14.67,14.67,0,0,0-4.55,9.23Z" transform="translate(-10.8 -31.54)"/><path class="cls-2" d="M532.77,109.14H521.29v54.08H499.94V109.14H492.2V90.68h7.74V88.6q0-13.38,7.36-20.34t21.6-7c1.58,0,2.75.05,3.5.13V80.28q-6.12-.39-8.62,1.82T521.29,90v.65h11.48Z" transform="translate(-10.8 -31.54)"/><path class="cls-2" d="M544.7,107.19a31.1,31.1,0,0,1,11-13,28,28,0,0,1,15.6-4.55,26,26,0,0,1,12.93,3.12,22.48,22.48,0,0,1,8.55,8.19V90.68h21.35v72.54H592.83V153a23.45,23.45,0,0,1-8.68,8.19,25.93,25.93,0,0,1-12.92,3.12,27.47,27.47,0,0,1-15.48-4.61,31.42,31.42,0,0,1-11-13.13,45.23,45.23,0,0,1-4.06-19.7A44.82,44.82,0,0,1,544.7,107.19Zm43.7,6.63a14.59,14.59,0,0,0-21.6-.06q-4.44,4.74-4.44,13.06T566.8,140a14.47,14.47,0,0,0,21.6.06q4.43-4.8,4.43-13.13T588.4,113.82Z" transform="translate(-10.8 -31.54)"/><path class="cls-2" d="M661.74,92.76a26.09,26.09,0,0,1,12.87-3.12,28,28,0,0,1,15.6,4.55,31.17,31.17,0,0,1,11,13,44.82,44.82,0,0,1,4.06,19.63,45.23,45.23,0,0,1-4.06,19.7,31.5,31.5,0,0,1-11,13.13,27.67,27.67,0,0,1-15.6,4.61,26.14,26.14,0,0,1-12.87-3,23.08,23.08,0,0,1-8.61-8.13v10.14H631.78V67h21.35V101A22.37,22.37,0,0,1,661.74,92.76Zm17.42,21A14.37,14.37,0,0,0,668.24,109a14.14,14.14,0,0,0-10.8,4.81Q653,118.64,653,127t4.44,13.13A14.54,14.54,0,0,0,679.1,140q4.5-4.87,4.49-13.2T679.16,113.76Z" transform="translate(-10.8 -31.54)"/><path class="cls-2" d="M749.39,93.35a23.41,23.41,0,0,1,12.49-3.45v23.53H756q-8,0-12,3.58t-4,12.54v33.67H718.68V90.68H740v12.09A28.77,28.77,0,0,1,749.39,93.35Z" transform="translate(-10.8 -31.54)"/><path class="cls-2" d="M775.8,79.7a11.41,11.41,0,0,1-3.56-8.52,11.55,11.55,0,0,1,3.56-8.64A12.62,12.62,0,0,1,785,59.09,12.49,12.49,0,0,1,794,62.54a11.54,11.54,0,0,1,3.55,8.64A11.4,11.4,0,0,1,794,79.7,12.48,12.48,0,0,1,785,83.14,12.62,12.62,0,0,1,775.8,79.7Zm19.79,11v72.54H774.24V90.68Z" transform="translate(-10.8 -31.54)"/><path class="cls-2" d="M855.77,163.22,834.54,132.8v30.42H813.19V67h21.35v53.17l21.1-29.51H882l-29,36.4,29.22,36.14Z" transform="translate(-10.8 -31.54)"/><path class="cls-1" d="M893.28,160.82a11.4,11.4,0,0,1-3.55-8.52,11.76,11.76,0,0,1,3.55-8.71,12.54,12.54,0,0,1,9.18-3.51,12.35,12.35,0,0,1,9,3.51,11.73,11.73,0,0,1,3.56,8.71,11.37,11.37,0,0,1-3.56,8.52,12.46,12.46,0,0,1-9,3.44A12.66,12.66,0,0,1,893.28,160.82Z" transform="translate(-10.8 -31.54)"/><path class="cls-1" d="M985.74,148.27H954.53l-4.75,14.95H924.06l32.09-91.65h28.22l32,91.65H990.48Zm-6.12-19.5-9.49-29.64-9.36,29.64Z" transform="translate(-10.8 -31.54)"/><path class="cls-1" d="M1051.91,71.57v91.65h-24.47V71.57Z" transform="translate(-10.8 -31.54)"/><path class="cls-2" d="M48.87,85.71c1.22-.43,2.38-.78,3.5-1.24,1.73-.71,3.49-1.36,5.19-2.17s3.19-1.5,4.72-2.41c.26-.16.34,0,.5.14a38.55,38.55,0,0,0,5.94,3.68,27.1,27.1,0,0,0,4,1.55,21.29,21.29,0,0,0,2.74.74,28.3,28.3,0,0,0,6.23.33,42.13,42.13,0,0,0,9.39-1.81c2.79-.84,5.54-1.81,8.32-2.68,1.92-.6,3.84-1.23,5.79-1.74a56.93,56.93,0,0,1,6-1.29,35.11,35.11,0,0,1,4.92-.26,26.59,26.59,0,0,1,6.52,1.06,24.42,24.42,0,0,1,5,2A38,38,0,0,1,134.1,86c1.62,1.29,3.19,2.66,4.76,4,1.94,1.69,3.84,3.42,5.8,5.07.5.42.31.7,0,.9-1,.64-2.09,1.26-3.14,1.87-1.4.82-2.86,1.43-4.3,2.13a45,45,0,0,1-4.79,1.89c-.43.16-.77-.37-1-.6a40.28,40.28,0,0,0-6.8-4.47,25.25,25.25,0,0,0-7.28-2.66,24.11,24.11,0,0,0-4-.35,34.62,34.62,0,0,0-7.47.75,63.53,63.53,0,0,0-8,2.25c-1.71.6-3.49,1-5.18,1.66a63.29,63.29,0,0,1-7.2,2.16,39.61,39.61,0,0,1-4.89.83c-1.4.18-2.8.11-4.2.24a16.17,16.17,0,0,1-2.74-.3,20.47,20.47,0,0,1-3.62-.85,26.42,26.42,0,0,1-5.13-2.15A44.7,44.7,0,0,1,59.71,95c-1.72-1.24-3.33-2.68-4.94-4.08C52.81,89.25,50.9,87.51,48.87,85.71Z" transform="translate(-10.8 -31.54)"/><path class="cls-2" d="M48.87,144c1.22-.43,2.38-.78,3.5-1.24,1.73-.71,3.49-1.36,5.19-2.16s3.19-1.51,4.72-2.42c.26-.16.34,0,.5.14A37.79,37.79,0,0,0,68.72,142a27.1,27.1,0,0,0,4,1.55,21.29,21.29,0,0,0,2.74.74,27.7,27.7,0,0,0,6.23.33,42.13,42.13,0,0,0,9.39-1.81c2.79-.84,5.54-1.8,8.32-2.67,1.92-.6,3.84-1.23,5.79-1.75a54.48,54.48,0,0,1,6-1.28,33.66,33.66,0,0,1,4.92-.26,26.58,26.58,0,0,1,6.52,1,23.91,23.91,0,0,1,5,2.06,38,38,0,0,1,6.5,4.31c1.62,1.3,3.19,2.67,4.76,4,1.94,1.69,3.84,3.42,5.8,5.07.5.43.31.7,0,.9-1,.64-2.09,1.26-3.14,1.88-1.4.81-2.86,1.43-4.3,2.13a47.11,47.11,0,0,1-4.79,1.88c-.43.16-.77-.37-1-.6a40.9,40.9,0,0,0-6.8-4.47,24.93,24.93,0,0,0-7.28-2.65,23.09,23.09,0,0,0-4-.35,34,34,0,0,0-7.47.75,60.3,60.3,0,0,0-8,2.25c-1.71.59-3.49,1-5.18,1.65a63.34,63.34,0,0,1-7.2,2.17,37.8,37.8,0,0,1-4.89.82c-1.4.18-2.8.12-4.2.24a15.21,15.21,0,0,1-2.74-.3,20.45,20.45,0,0,1-3.62-.84,26.46,26.46,0,0,1-5.13-2.16,44.7,44.7,0,0,1-5.19-3.37c-1.72-1.24-3.33-2.67-4.94-4.07C52.81,147.57,50.9,145.82,48.87,144Z" transform="translate(-10.8 -31.54)"/><path class="cls-2" d="M48.87,114.86c1.22-.42,2.38-.78,3.5-1.24,1.73-.71,3.49-1.35,5.19-2.16A51.22,51.22,0,0,0,62.28,109c.26-.15.34,0,.5.14a38.61,38.61,0,0,0,5.94,3.69,29.55,29.55,0,0,0,4,1.55,23,23,0,0,0,2.74.74,28.29,28.29,0,0,0,6.23.32,42.68,42.68,0,0,0,9.39-1.8c2.79-.84,5.54-1.81,8.32-2.68,1.92-.6,3.84-1.23,5.79-1.74a54.52,54.52,0,0,1,6-1.29,35.11,35.11,0,0,1,4.92-.26,27.06,27.06,0,0,1,6.52,1.05,24.46,24.46,0,0,1,5,2.06,38,38,0,0,1,6.5,4.31c1.62,1.3,3.19,2.67,4.76,4,1.94,1.69,3.84,3.43,5.8,5.08.5.42.31.69,0,.89-1,.65-2.09,1.27-3.14,1.88-1.4.81-2.86,1.43-4.3,2.13a45,45,0,0,1-4.79,1.89c-.43.15-.77-.38-1-.61a40.22,40.22,0,0,0-6.8-4.46,25,25,0,0,0-7.28-2.66,24.11,24.11,0,0,0-4-.35,34,34,0,0,0-7.47.75,61.87,61.87,0,0,0-8,2.25c-1.71.6-3.49,1-5.18,1.65a63.34,63.34,0,0,1-7.2,2.17,37.8,37.8,0,0,1-4.89.82c-1.4.19-2.8.12-4.2.25a15.24,15.24,0,0,1-2.74-.31A20.45,20.45,0,0,1,70,129.7a25.85,25.85,0,0,1-5.13-2.16,46,46,0,0,1-5.19-3.36c-1.72-1.25-3.33-2.68-4.94-4.08C52.81,118.41,50.9,116.67,48.87,114.86Z" transform="translate(-10.8 -31.54)"/><rect class="cls-3" width="1064.87" height="175.18"/><path class="cls-2" d="M697.87,203.08v31.15H688.1V203.08Z" transform="translate(-10.8 -31.54)"/><path class="cls-2" d="M726.73,203.08v7.75h-8.27v23.4h-9.77v-23.4h-8.18v-7.75Z" transform="translate(-10.8 -31.54)"/><path class="cls-1" d="M745.3,240.57h-9.77V197.8h9.77Z" transform="translate(-10.8 -31.54)"/><path class="cls-2" d="M763,232.47a15.39,15.39,0,0,1-5.83-5.72,16.81,16.81,0,0,1,0-16.45,15.27,15.27,0,0,1,5.83-5.7,16.89,16.89,0,0,1,16.13,0,15.23,15.23,0,0,1,5.79,5.7,16.95,16.95,0,0,1,0,16.45,15.27,15.27,0,0,1-5.81,5.72,16.71,16.71,0,0,1-16.11,0Zm12.57-8.91a7.54,7.54,0,0,0,1.58-5,7.67,7.67,0,0,0-1.58-5.09,6.39,6.39,0,0,0-9,0,7.67,7.67,0,0,0-1.58,5.09,7.54,7.54,0,0,0,1.58,5,6.39,6.39,0,0,0,9,0Z" transform="translate(-10.8 -31.54)"/><path class="cls-2" d="M815,203.08v7.75h-8.27v23.4H797v-23.4h-8.18v-7.75Z" transform="translate(-10.8 -31.54)"/><path class="cls-2" d="M834.09,206v11.48h11.66V220H834.09v11.66h13v2.55H831v-30.8h16.06V206Z" transform="translate(-10.8 -31.54)"/><path class="cls-2" d="M865.72,234.23l-6.2-9.68-6,9.68h-3.26l7.74-12-7.65-12h3.47l6.12,9.55,5.94-9.55h3.21l-7.65,11.88,7.74,12.14Z" transform="translate(-10.8 -31.54)"/><path class="cls-2" d="M873.47,215.69a10.6,10.6,0,0,1,4.13-4.31,13,13,0,0,1,13.36.68,10,10,0,0,1,3.72,6h-3.3a6.77,6.77,0,0,0-2.67-4.07,8.46,8.46,0,0,0-5.08-1.47,8.58,8.58,0,0,0-4.35,1.1,7.62,7.62,0,0,0-3.06,3.28,11.52,11.52,0,0,0-1.12,5.34,11.71,11.71,0,0,0,1.12,5.37,7.61,7.61,0,0,0,3.06,3.3,8.68,8.68,0,0,0,4.35,1.1,8.46,8.46,0,0,0,5.08-1.47,6.83,6.83,0,0,0,2.67-4.12h3.3a10.08,10.08,0,0,1-3.74,5.94,11.6,11.6,0,0,1-7.31,2.25,11.9,11.9,0,0,1-6-1.52,10.6,10.6,0,0,1-4.13-4.31,15,15,0,0,1,0-13.07Z" transform="translate(-10.8 -31.54)"/><path class="cls-2" d="M922,223.41H902.07a9.58,9.58,0,0,0,1.32,4.66,7.77,7.77,0,0,0,3.12,2.93,9.15,9.15,0,0,0,4.23,1,8.44,8.44,0,0,0,5-1.45,6.82,6.82,0,0,0,2.71-3.92h3.26a10.19,10.19,0,0,1-3.77,5.74,11.44,11.44,0,0,1-7.23,2.23,12.17,12.17,0,0,1-6.08-1.52,10.7,10.7,0,0,1-4.2-4.31,13.53,13.53,0,0,1-1.52-6.54,13.71,13.71,0,0,1,1.5-6.55,10.43,10.43,0,0,1,4.18-4.32,12.44,12.44,0,0,1,6.12-1.49,11.79,11.79,0,0,1,6,1.49,10.29,10.29,0,0,1,4,4,11.55,11.55,0,0,1,1.39,5.61C922.09,222.05,922.06,222.85,922,223.41Zm-4.12-7.08a7.13,7.13,0,0,0-3-2.86,9.26,9.26,0,0,0-4.23-1,8.38,8.38,0,0,0-5.85,2.2,8.75,8.75,0,0,0-2.68,6.2H919A8.49,8.49,0,0,0,917.88,216.33Z" transform="translate(-10.8 -31.54)"/><path class="cls-2" d="M930.8,201.67v32.56h-3.08V201.67Z" transform="translate(-10.8 -31.54)"/><path class="cls-2" d="M940.87,201.67v32.56h-3.08V201.67Z" transform="translate(-10.8 -31.54)"/><path class="cls-2" d="M969.52,223.41H949.59a9.48,9.48,0,0,0,1.32,4.66A7.77,7.77,0,0,0,954,231a9.14,9.14,0,0,0,4.22,1,8.45,8.45,0,0,0,5-1.45,6.82,6.82,0,0,0,2.71-3.92h3.25a10.12,10.12,0,0,1-3.76,5.74,11.45,11.45,0,0,1-7.24,2.23,12.13,12.13,0,0,1-6.07-1.52,10.7,10.7,0,0,1-4.2-4.31,13.53,13.53,0,0,1-1.52-6.54,13.71,13.71,0,0,1,1.5-6.55,10.37,10.37,0,0,1,4.18-4.32,12.42,12.42,0,0,1,6.11-1.49,11.83,11.83,0,0,1,6,1.49,10.29,10.29,0,0,1,4,4,11.55,11.55,0,0,1,1.39,5.61C969.61,222.05,969.58,222.85,969.52,223.41Zm-4.12-7.08a7.13,7.13,0,0,0-3-2.86,9.29,9.29,0,0,0-4.23-1,8.36,8.36,0,0,0-5.85,2.2,8.75,8.75,0,0,0-2.68,6.2h16.89A8.49,8.49,0,0,0,965.4,216.33Z" transform="translate(-10.8 -31.54)"/><path class="cls-2" d="M993.54,212.43q2.73,2.67,2.73,7.72v14.08h-3V220.51a8.4,8.4,0,0,0-2-6,7,7,0,0,0-5.35-2.07,7.24,7.24,0,0,0-5.54,2.2q-2.07,2.21-2.07,6.47v13.11h-3.08v-24h3.08v4.09a7.81,7.81,0,0,1,3.3-3.36,10,10,0,0,1,4.88-1.17A9.67,9.67,0,0,1,993.54,212.43Z" transform="translate(-10.8 -31.54)"/><path class="cls-2" d="M1003.18,215.69a10.6,10.6,0,0,1,4.13-4.31,13,13,0,0,1,13.36.68,10,10,0,0,1,3.72,6h-3.31a6.72,6.72,0,0,0-2.66-4.07,8.46,8.46,0,0,0-5.08-1.47,8.58,8.58,0,0,0-4.35,1.1,7.62,7.62,0,0,0-3.06,3.28,11.52,11.52,0,0,0-1.12,5.34,11.71,11.71,0,0,0,1.12,5.37,7.61,7.61,0,0,0,3.06,3.3,8.68,8.68,0,0,0,4.35,1.1,8.46,8.46,0,0,0,5.08-1.47,6.78,6.78,0,0,0,2.66-4.12h3.31a10.08,10.08,0,0,1-3.74,5.94,11.6,11.6,0,0,1-7.31,2.25,11.9,11.9,0,0,1-6-1.52,10.6,10.6,0,0,1-4.13-4.31,15,15,0,0,1,0-13.07Z" transform="translate(-10.8 -31.54)"/><path class="cls-2" d="M1051.71,223.41h-19.93a9.58,9.58,0,0,0,1.32,4.66,7.77,7.77,0,0,0,3.12,2.93,9.15,9.15,0,0,0,4.23,1,8.44,8.44,0,0,0,5-1.45,6.82,6.82,0,0,0,2.71-3.92h3.26a10.19,10.19,0,0,1-3.77,5.74,11.44,11.44,0,0,1-7.23,2.23,12.17,12.17,0,0,1-6.08-1.52,10.7,10.7,0,0,1-4.2-4.31,13.53,13.53,0,0,1-1.52-6.54,13.71,13.71,0,0,1,1.5-6.55,10.43,10.43,0,0,1,4.18-4.32,12.44,12.44,0,0,1,6.12-1.49,11.79,11.79,0,0,1,6,1.49,10.29,10.29,0,0,1,4,4,11.55,11.55,0,0,1,1.39,5.61C1051.8,222.05,1051.77,222.85,1051.71,223.41Zm-4.12-7.08a7.13,7.13,0,0,0-3-2.86,9.26,9.26,0,0,0-4.23-1,8.38,8.38,0,0,0-5.85,2.2,8.75,8.75,0,0,0-2.68,6.2h16.89A8.49,8.49,0,0,0,1047.59,216.33Z" transform="translate(-10.8 -31.54)"/></g></svg>
